<?xml version="1.0" standalone="no"?>
<!DOCTYPE svg PUBLIC "-//W3C//DTD SVG 20010904//EN"
 "http://www.w3.org/TR/2001/REC-SVG-20010904/DTD/svg10.dtd">
<svg version="1.0" xmlns="http://www.w3.org/2000/svg"
 width="512.000000pt" height="512.000000pt" viewBox="0 0 512.000000 512.000000"
 preserveAspectRatio="xMidYMid meet">

<g transform="translate(0.000000,512.000000) scale(0.100000,-0.100000)"
fill="#000000" stroke="none">
<path d="M3133 4239 c-49 -24 -52 -29 -277 -388 -91 -145 -166 -274 -166 -285
1 -22 64 -116 78 -116 5 0 102 142 216 315 115 173 214 315 222 315 18 0 -6
34 613 -883 304 -449 549 -822 546 -828 -9 -14 -62 -2 -105 24 -19 12 -134
102 -255 201 -121 98 -236 185 -255 193 -19 9 -48 13 -67 10 -35 -6 -132 -72
-243 -165 -73 -61 -84 -76 -76 -99 13 -33 789 -1209 813 -1230 l24 -23 382 0
c246 0 396 4 422 11 86 24 133 112 104 194 -12 32 -838 1297 -1673 2563 -86
130 -116 167 -150 187 -52 30 -97 32 -153 4z"/>
<path d="M1944 4088 c-25 -5 -55 -22 -76 -42 -18 -18 -126 -181 -239 -362
-114 -181 -524 -836 -912 -1457 -749 -1197 -734 -1170 -708 -1249 14 -42 65
-92 110 -107 49 -16 3783 -16 3832 0 101 34 143 144 92 242 -26 52 -1895 2892
-1922 2920 -48 52 -106 70 -177 55z m643 -1080 c318 -475 584 -876 591 -891 6
-15 12 -41 12 -57 0 -67 -74 -20 -208 130 -452 505 -511 565 -565 575 -70 13
-107 -8 -297 -170 -229 -196 -277 -222 -327 -176 -22 21 -45 127 -88 411 -45
296 -64 360 -106 360 -11 0 -38 -9 -59 -20 -22 -11 -40 -18 -40 -16 0 3 106
165 235 360 173 263 239 356 254 356 14 0 166 -219 598 -862z"/>
</g>
</svg>
